<svg width="58" height="71" viewBox="0 0 58 71" fill="none" xmlns="http://www.w3.org/2000/svg">
<path d="M44.9461 36.3372C43.9364 36.1004 42.9287 35.9706 41.9304 35.8951V34.2342C47.3154 32.9776 51.3044 28.6287 51.3044 23.4561L51.303 15.2901C50.99 9.73085 47.4232 4.94774 42.1898 3.00338C41.2718 1.23535 39.2886 0 36.9792 0C34.5557 0 32.4857 1.35633 31.6361 3.26579C26.7948 5.3513 23.4791 10.0598 23.1838 15.2904C23.1824 15.3133 23.1824 15.3362 23.1824 15.3593V23.4564C23.1824 28.6289 27.1714 32.9778 32.5564 34.2346V35.8725C31.5672 35.943 30.5588 36.0847 29.5474 36.3161C25.1959 37.3126 21.3897 39.8456 19.0208 43.2778C18.1054 43.2055 17.1828 43.3488 16.3415 43.7292C15.145 44.2694 14.2531 45.1962 13.8319 46.3383L12.0653 51.1268C12.0248 51.1281 11.9829 51.1293 11.9411 51.131L10.1731 46.3389C9.75193 45.1962 8.86141 44.2694 7.66355 43.7292C6.46435 43.1872 5.10311 43.1008 3.83562 43.4788C1.21092 44.2612 -0.215934 46.8168 0.653835 49.1762L2.89655 55.2543C1.04754 57.2314 0 59.6302 0 61.9348C0 67.018 5.42585 71 12.3529 71C16.634 71 20.3378 69.4757 22.5454 67.113H56.6609C57.4011 67.113 58 66.5741 58 65.9093V51.5066C58 44.3738 52.6317 38.136 44.9461 36.3372ZM31.2172 38.4613C31.694 38.3809 32.165 38.3216 32.6311 38.2846C32.9883 40.2912 34.912 41.8341 37.2434 41.8341C39.5684 41.8341 41.4892 40.3 41.8537 38.3012C42.3228 38.3412 42.7938 38.4022 43.2695 38.4847V47.3254C42.843 47.2146 42.4018 47.1415 41.9461 47.1415C39.2691 47.1415 37.0917 49.0989 37.0917 51.5051C37.0917 53.7107 41.0884 57.7541 43.2695 59.6121V64.7056H31.2172V38.4613ZM45.0208 57.8099C42.6746 55.842 39.7871 52.4398 39.77 51.5055C39.77 50.4269 40.7455 49.5494 41.9461 49.5494C42.7321 49.5494 43.4593 49.9442 43.8437 50.5804C44.0777 50.9677 44.529 51.2094 45.0208 51.2094C45.5113 51.2094 45.9621 50.9683 46.1966 50.5816C46.5822 49.9451 47.3107 49.5494 48.0968 49.5494C49.2973 49.5494 50.2729 50.4269 50.2729 51.5048C50.2554 52.4405 47.3679 55.842 45.0208 57.8099ZM36.9792 2.40751C38.6793 2.40751 40.063 3.65069 40.063 5.17887C40.063 6.70703 38.6793 7.95081 36.9792 7.95081C35.2792 7.95081 33.8955 6.70703 33.8955 5.17887C33.8955 3.65069 35.2792 2.40751 36.9792 2.40751ZM31.3324 6.20115C31.8624 8.56897 34.1921 10.3583 36.9792 10.3583C39.8772 10.3583 42.2588 8.41844 42.6588 5.91105C45.7603 7.60082 47.8959 10.6367 48.4677 14.1477H26.0264C26.5826 10.857 28.527 7.93788 31.3324 6.20115ZM25.8607 23.4561V16.5553H48.6261V23.4564C48.6261 28.2801 44.1942 32.2041 38.7473 32.2041H35.7395C30.2926 32.2041 25.8607 28.2801 25.8607 23.4561ZM35.7395 34.6116H38.7473C38.9176 34.6116 39.0833 34.5951 39.2521 34.5891V37.6211C39.2521 38.6168 38.3512 39.4266 37.2434 39.4266C36.1356 39.4266 35.2346 38.6168 35.2346 37.6211V34.5891C35.4034 34.5947 35.5691 34.6116 35.7395 34.6116ZM12.3529 68.5925C7.59659 68.5925 2.67827 66.1023 2.67827 61.9348C2.67827 60.0233 3.66422 57.9931 5.38266 56.3638C5.72281 56.0418 5.83763 55.5781 5.68229 55.1564L3.19619 48.4181C2.79076 47.3191 3.45632 46.1283 4.67794 45.7638C4.91999 45.6916 5.1684 45.6564 5.41547 45.6564C5.77503 45.6564 6.13224 45.7317 6.46167 45.8803C7.02009 46.1319 7.43455 46.5637 7.63073 47.0964L9.73352 52.7956C9.93602 53.3457 10.5547 53.6848 11.1838 53.6096C11.8025 53.535 12.2809 53.5166 12.7569 53.5497L12.931 53.5608C13.5246 53.5961 14.1001 53.2599 14.2923 52.7393L16.3743 47.0961C16.5705 46.564 16.985 46.1321 17.5434 45.8806C18.1018 45.6302 18.7335 45.5866 19.3271 45.7641C19.9197 45.9405 20.3994 46.3143 20.6793 46.8156C20.9592 47.3164 21.005 47.886 20.8088 48.4184L18.4955 54.6912C18.3308 55.1372 18.4707 55.6286 18.8524 55.9497C20.8403 57.6172 22.0261 59.855 22.0261 61.9351C22.0264 66.1019 17.1081 68.5925 12.3529 68.5925ZM21.298 54.7427L23.3512 49.1759C23.7737 48.0332 23.6743 46.8114 23.0726 45.735C22.7171 45.0972 22.1961 44.5721 21.5775 44.1583C23.2702 41.889 25.7171 40.1269 28.539 39.1414V64.7053H24.1356C24.5042 63.835 24.7047 62.9053 24.7047 61.9345C24.7047 59.431 23.444 56.7936 21.298 54.7427ZM55.3218 64.7056H45.9478V60.276C47.6903 58.9862 52.9508 54.0369 52.9508 51.5055C52.9508 49.0991 50.7734 47.1419 48.0965 47.1419C47.3355 47.1419 46.607 47.3173 45.9478 47.6149V39.1691C51.5414 41.1423 55.3218 46.0052 55.3218 51.507V64.7056Z" fill="#EA1C81"/>
<path d="M7.5 8C8.32913 8 9 7.44031 9 6.74999V4.25C9 3.55968 8.32913 3 7.5 3C6.67087 3 6 3.55968 6 4.25V6.74999C6 7.44031 6.67087 8 7.5 8Z" fill="#EA1C81"/>
<path d="M7.5 11C6.67087 11 6 11.4478 6 12V14C6 14.5522 6.67087 15 7.5 15C8.32913 15 9 14.5522 9 14V12C9 11.4478 8.32913 11 7.5 11Z" fill="#EA1C81"/>
<path d="M2.25 11H4.75001C5.44094 11 6 10.3284 6 9.5C6 8.67168 5.44094 8 4.75001 8H2.25C1.55906 8 1 8.67168 1 9.5C1 10.3284 1.55906 11 2.25 11Z" fill="#EA1C81"/>
<path d="M10.25 11H12.75C13.441 11 14 10.3284 14 9.5C14 8.67168 13.441 8 12.75 8H10.25C9.55906 8 9 8.67168 9 9.5C9 10.3284 9.55906 11 10.25 11Z" fill="#EA1C81"/>
<path d="M17.0001 19C17.5524 19 18 18.3283 18 17.5002C18 16.672 17.5522 16 17.0001 16C16.448 16 16 16.6718 16 17.5002C16 18.3287 16.4478 19 17.0001 19Z" fill="#EA1C81"/>
<path d="M16.5001 61C17.3284 61 18 60.5523 18 60C18 59.4477 17.3284 59 16.5001 59C15.6716 59 15 59.4477 15 60C15 60.5523 15.6716 61 16.5001 61Z" fill="#EA1C81"/>
<path d="M8.5 61C9.32842 61 10 60.5523 10 60C10 59.4477 9.32842 59 8.5 59C7.67157 59 7 59.4477 7 60C7 60.5523 7.67157 61 8.5 61Z" fill="#EA1C81"/>
<path d="M41.9457 26.6633C42.1491 25.9803 41.7637 25.2605 41.083 25.0559C40.4013 24.8478 39.6855 25.2392 39.4824 25.9212C39.215 26.8172 38.4179 27.4192 37.4999 27.4192C36.582 27.4192 35.7849 26.8175 35.5175 25.9212C35.314 25.2395 34.5973 24.852 33.9169 25.0559C33.2364 25.2608 32.8511 25.9803 33.0542 26.6633C33.6505 28.6591 35.4372 30 37.4999 30C39.5627 30 41.3494 28.6591 41.9457 26.6633Z" fill="#EA1C81"/>
</svg>
