<svg width="67" height="70" viewBox="0 0 67 70" fill="none" xmlns="http://www.w3.org/2000/svg">
<path d="M57.3165 24.2917H48.0548V20.3747C48.0548 16.5075 45.0917 13.3605 41.4503 13.3605H23.7791C20.1375 13.3605 17.174 16.5072 17.174 20.3747V24.2917H6.75003C3.02775 24.2917 0 27.5073 0 31.4599V62.0628C0 66.0156 3.02803 69.231 6.75003 69.231H57.3167C61.0396 69.231 64.0674 66.0154 64.0674 62.0628V31.4599C64.0674 27.5073 61.0393 24.2917 57.3165 24.2917ZM19.4618 20.3747C19.4618 17.8466 21.3984 15.7897 23.7793 15.7897H41.4509C43.831 15.7897 45.7679 17.8462 45.7679 20.3747V25.5063C45.7679 26.1759 45.2552 26.7209 44.6242 26.7209C43.9931 26.7209 43.4804 26.1759 43.4804 25.5063V20.3747C43.4804 19.1862 42.57 18.2188 41.4509 18.2188H23.7791C22.6599 18.2188 21.7489 19.1862 21.7489 20.3747V25.5063C21.7489 26.1759 21.2357 26.7209 20.6052 26.7209C19.9747 26.7209 19.4615 26.1759 19.4615 25.5063V20.3747H19.4618ZM41.1927 24.2917H24.0367V20.648H41.1927V24.2917ZM6.75003 26.7209H17.385C17.8585 28.1316 19.1163 29.1501 20.6055 29.1501C22.0946 29.1501 23.3521 28.1316 23.826 26.7209H41.4034C41.8769 28.1316 43.1347 29.1501 44.6239 29.1501C46.113 29.1501 47.3705 28.1316 47.8444 26.7209H57.3167C59.7772 26.7209 61.7799 28.847 61.7799 31.4599V36.3237H30.8991V35.2123C30.8991 32.5336 28.8467 30.354 26.3242 30.354C23.8016 30.354 21.7493 32.5336 21.7493 35.2123V36.3237H19.4618V35.2123C19.4618 32.5336 17.4093 30.354 14.8869 30.354C12.3643 30.354 10.3119 32.5336 10.3119 35.2123V36.3237H2.28718V31.4599C2.28718 28.847 4.28928 26.7209 6.75003 26.7209ZM28.6117 35.2123V40.2261C28.6117 41.5658 27.5857 42.6553 26.3242 42.6553C25.0626 42.6553 24.0367 41.5658 24.0367 40.2261V35.2123C24.0367 33.8726 25.0626 32.7832 26.3242 32.7832C27.5857 32.7832 28.6117 33.8726 28.6117 35.2123ZM17.1743 35.2123V40.2261C17.1743 41.5658 16.1483 42.6553 14.8869 42.6553C13.6253 42.6553 12.5994 41.5658 12.5994 40.2261V35.2123C12.5994 33.8726 13.6253 32.7832 14.8869 32.7832C16.1483 32.7832 17.1743 33.8726 17.1743 35.2123ZM57.3165 66.8021H6.75003C4.28957 66.8021 2.28747 64.676 2.28747 62.0631V38.7529H10.3119V40.2261C10.3119 42.9049 12.3643 45.0845 14.8869 45.0845C17.4093 45.0845 19.4618 42.9049 19.4618 40.2261V38.7529H21.7493V40.2261C21.7493 42.9049 23.8016 45.0845 26.3242 45.0845C28.8467 45.0845 30.8991 42.9049 30.8991 40.2261V38.7529H61.7799V62.0631C61.7799 64.676 59.7772 66.8021 57.3165 66.8021Z" fill="#EA1C81"/>
<path d="M56.0611 4.85836C56.6933 4.85836 57.2048 4.31452 57.2048 3.64377V1.21459C57.2048 0.543832 56.6933 0 56.0611 0C55.4289 0 54.9174 0.543832 54.9174 1.21459V3.64377C54.9174 4.31452 55.4289 4.85836 56.0611 4.85836Z" fill="#EA1C81"/>
<path d="M56.0611 7.28754C55.4289 7.28754 54.9174 7.83137 54.9174 8.5021V10.9313C54.9174 11.602 55.4289 12.1459 56.0611 12.1459C56.6933 12.1459 57.2048 11.602 57.2048 10.9313V8.5021C57.2048 7.83137 56.6933 7.28754 56.0611 7.28754Z" fill="#EA1C81"/>
<path d="M51.4862 7.28755H53.7737C54.4059 7.28755 54.9174 6.74371 54.9174 6.07296C54.9174 5.4022 54.4059 4.85837 53.7737 4.85837H51.4862C50.854 4.85837 50.3425 5.4022 50.3425 6.07296C50.3425 6.74371 50.854 7.28755 51.4862 7.28755Z" fill="#EA1C81"/>
<path d="M58.3487 7.28755H60.6362C61.2684 7.28755 61.7799 6.74371 61.7799 6.07296C61.7799 5.4022 61.2684 4.85837 60.6362 4.85837H58.3487C57.7165 4.85837 57.205 5.4022 57.205 6.07296C57.205 6.74371 57.7165 7.28755 58.3487 7.28755Z" fill="#EA1C81"/>
<path d="M65.1327 15.6179C64.4573 15.6179 63.91 16.1993 63.91 16.9165C63.91 17.6336 64.4577 18.2148 65.1327 18.2148C65.8078 18.2148 66.3557 17.6334 66.3557 16.9165C66.3557 16.1996 65.8081 15.6179 65.1327 15.6179Z" fill="#EA1C81"/>
<path d="M49.9874 56.2807C49.5093 55.9206 49.2345 55.3977 49.2345 54.8454C49.2345 52.6528 47.6853 50.8488 45.7072 50.7392C44.683 50.6793 43.6934 51.0641 42.944 51.8198C42.2058 52.5634 41.7825 53.6102 41.7825 54.6908V54.8457C41.7825 55.3977 41.5078 55.9209 41.0297 56.2811C39.8413 57.1752 39.2391 58.6859 39.4582 60.2221C39.6927 61.876 40.9302 63.2628 42.467 63.5932C42.7284 63.6497 42.9932 63.6773 43.2557 63.6773C43.6523 63.6773 44.0454 63.6138 44.4194 63.4875C45.1408 63.2431 45.8748 63.2442 46.5962 63.4875C47.2195 63.6964 47.8929 63.7341 48.5497 63.5932C50.0866 63.2628 51.323 61.8764 51.5586 60.2221C51.7765 58.6838 51.1746 57.1737 49.9874 56.2807ZM49.296 59.8598C49.2033 60.5133 48.6984 61.082 48.0965 61.2113C47.8152 61.2724 47.5446 61.2575 47.289 61.1716C46.1219 60.7784 44.892 60.7796 43.7272 61.1716C43.4713 61.2569 43.2011 61.2718 42.9208 61.2119C42.3189 61.082 41.814 60.5133 41.7202 59.8586C41.6298 59.2252 41.8666 58.6285 42.3524 58.2626C43.4281 57.4531 44.0703 56.1757 44.0703 54.8454V54.6905C44.0703 54.267 44.2301 53.8734 44.5192 53.5816C44.7883 53.3096 45.138 53.1622 45.5088 53.1622C45.5345 53.1622 45.5614 53.1635 45.5869 53.1647C46.3374 53.2069 46.9473 53.9605 46.9473 54.8454C46.9473 56.1757 47.5896 57.4531 48.6652 58.2626C49.1508 58.628 49.3863 59.2252 49.296 59.8598Z" fill="#EA1C81"/>
<path d="M54.4203 49.9031C52.4714 49.9031 50.8853 51.5869 50.8853 53.6564C50.8853 55.7259 52.4714 57.4096 54.4203 57.4096C56.3692 57.4096 57.9542 55.7259 57.9542 53.6564C57.9542 51.5869 56.3696 49.9031 54.4203 49.9031ZM54.4203 54.9806C53.7324 54.9806 53.1728 54.3863 53.1728 53.6564C53.1728 52.9265 53.7324 52.3322 54.4203 52.3322C55.1071 52.3322 55.6667 52.9265 55.6667 53.6564C55.6667 54.3863 55.1074 54.9806 54.4203 54.9806Z" fill="#EA1C81"/>
<path d="M49.9639 50.312C51.9128 50.312 53.4989 48.6282 53.4989 46.5587C53.4989 44.489 51.9128 42.8053 49.9639 42.8053C48.015 42.8053 46.4301 44.489 46.4301 46.5587C46.4301 48.6282 48.0147 50.312 49.9639 50.312ZM49.9639 45.2344C50.6519 45.2344 51.2114 45.8287 51.2114 46.5587C51.2114 47.2886 50.6519 47.8828 49.9639 47.8828C49.2771 47.8828 48.7175 47.2886 48.7175 46.5587C48.7175 45.8287 49.2768 45.2344 49.9639 45.2344Z" fill="#EA1C81"/>
<path d="M42.1666 50.312C44.1155 50.312 45.7005 48.6282 45.7005 46.5587C45.7005 44.489 44.1155 42.8053 42.1666 42.8053C40.2177 42.8053 38.6315 44.489 38.6315 46.5587C38.6315 48.6282 40.2177 50.312 42.1666 50.312ZM42.1666 45.2344C42.8534 45.2344 43.413 45.8287 43.413 46.5587C43.413 47.2886 42.8534 47.8828 42.1666 47.8828C41.4787 47.8828 40.919 47.2886 40.919 46.5587C40.919 45.8287 41.4787 45.2344 42.1666 45.2344Z" fill="#EA1C81"/>
<path d="M36.5965 49.9031C34.6476 49.9031 33.0615 51.5869 33.0615 53.6564C33.0615 55.7259 34.6476 57.4096 36.5965 57.4096C38.5454 57.4096 40.1304 55.7259 40.1304 53.6564C40.1304 51.5869 38.5454 49.9031 36.5965 49.9031ZM36.5965 54.9806C35.9086 54.9806 35.349 54.3863 35.349 53.6564C35.349 52.9265 35.9086 52.3322 36.5965 52.3322C37.2834 52.3322 37.8429 52.9265 37.8429 53.6564C37.8429 54.3863 37.2834 54.9806 36.5965 54.9806Z" fill="#EA1C81"/>
</svg>
