<svg width="61" height="67" viewBox="0 0 61 67" fill="none" xmlns="http://www.w3.org/2000/svg">
<path d="M15.4838 24.1471V24.3008C15.4838 24.8488 15.2093 25.3682 14.7309 25.7256C13.5427 26.6121 12.94 28.1116 13.1581 29.6377C13.3928 31.2794 14.6307 32.656 16.1695 32.9846C16.4305 33.04 16.6949 33.0675 16.9581 33.0675C17.3551 33.0675 17.7492 33.0045 18.1235 32.8791C18.846 32.6377 19.5789 32.6377 20.3027 32.8791C20.9242 33.0874 21.601 33.1235 22.2578 32.984C23.7954 32.656 25.0334 31.2798 25.2684 29.6377C25.4864 28.1119 24.8838 26.6124 23.6956 25.7256C23.217 25.3682 22.9426 24.8491 22.9426 24.3008C22.9426 22.1243 21.3915 20.3336 19.4118 20.2248C18.3822 20.1648 17.3957 20.5479 16.6462 21.2975C15.9073 22.0354 15.4838 23.0747 15.4838 24.1471ZM17.7732 24.3008V24.1471C17.7732 23.7266 17.9326 23.336 18.2225 23.0464C18.4923 22.7763 18.8417 22.6301 19.2135 22.6301C19.2398 22.6301 19.2662 22.6313 19.2922 22.6324C20.0428 22.6744 20.6532 23.4225 20.6532 24.3008C20.6532 25.6213 21.2954 26.8894 22.372 27.6929C22.8582 28.0556 23.0946 28.6484 23.0047 29.2784C22.912 29.9271 22.4066 30.4916 21.8042 30.62C21.5241 30.68 21.2519 30.6658 20.9961 30.5805C19.829 30.1908 18.5965 30.1908 17.4307 30.5805C17.1742 30.6664 16.9006 30.6788 16.6236 30.6206C16.0201 30.4916 15.5147 29.9271 15.422 29.2784C15.3321 28.6484 15.5685 28.0556 16.0547 27.6929C17.1307 26.8894 17.7732 25.6213 17.7732 24.3008Z" fill="#EA1C81"/>
<path d="M24.5947 23.1204C24.5947 25.1748 26.1815 26.846 28.1322 26.846C30.0827 26.846 31.6695 25.1748 31.6695 23.1204C31.6695 21.066 30.0827 19.3948 28.1322 19.3948C26.1815 19.3948 24.5947 21.066 24.5947 23.1204ZM28.1324 21.806C28.8203 21.806 29.3804 22.3959 29.3804 23.1204C29.3804 23.845 28.8203 24.4348 28.1324 24.4348C27.4445 24.4348 26.8844 23.845 26.8844 23.1204C26.8844 22.3959 27.4441 21.806 28.1324 21.806Z" fill="#EA1C81"/>
<path d="M23.6726 12.3491C21.7221 12.3491 20.1353 14.0204 20.1353 16.075C20.1353 18.1294 21.7221 19.8008 23.6726 19.8008C25.6232 19.8008 27.2106 18.1294 27.2106 16.075C27.2106 14.0204 25.6232 12.3491 23.6726 12.3491ZM23.6726 17.3894C22.9847 17.3894 22.4246 16.7995 22.4246 16.075C22.4246 15.3504 22.9847 14.7604 23.6726 14.7604C24.3612 14.7604 24.9212 15.3504 24.9212 16.075C24.9212 16.7995 24.3612 17.3894 23.6726 17.3894Z" fill="#EA1C81"/>
<path d="M12.3307 16.075C12.3307 18.1294 13.9175 19.8008 15.8681 19.8008C17.8186 19.8008 19.4055 18.1294 19.4055 16.075C19.4055 14.0204 17.8186 12.3491 15.8681 12.3491C13.9175 12.3491 12.3307 14.0204 12.3307 16.075ZM17.1164 16.075C17.1164 16.7995 16.5564 17.3894 15.8684 17.3894C15.1804 17.3894 14.6204 16.7995 14.6204 16.075C14.6204 15.3504 15.1804 14.7604 15.8684 14.7604C16.5564 14.7604 17.1164 15.3504 17.1164 16.075Z" fill="#EA1C81"/>
<path d="M10.2939 19.3948C8.34338 19.3948 6.75656 21.066 6.75656 23.1204C6.75656 25.1748 8.34338 26.846 10.2939 26.846C12.2445 26.846 13.8313 25.1748 13.8313 23.1204C13.8313 21.066 12.2445 19.3948 10.2939 19.3948ZM10.2939 24.4348C9.606 24.4348 9.0459 23.845 9.0459 23.1204C9.0459 22.3959 9.606 21.806 10.2939 21.806C10.9819 21.806 11.542 22.3959 11.542 23.1204C11.542 23.845 10.9819 24.4348 10.2939 24.4348Z" fill="#EA1C81"/>
<path d="M53.8987 39.9912V34.4065C53.8987 30.0607 50.5418 26.5252 46.4158 26.5252C42.2897 26.5252 38.9329 30.0607 38.9329 34.4065V54.2474C38.9329 59.5698 34.8214 63.9002 29.7682 63.9002C24.7143 63.9002 20.6028 59.5698 20.6028 54.2474V40.5226C30.8516 39.9511 38.2049 25.9163 38.2049 16.3844C38.2049 10.9753 35.3886 6.95257 30.0597 4.69679C29.9945 2.15768 28.0236 0.110474 25.5975 0.110474C23.1303 0.110474 21.1231 2.22459 21.1231 4.82308C21.1231 7.42157 23.1303 9.53569 25.5975 9.53569C27.2832 9.53569 28.7365 8.53711 29.4991 7.08278C33.7393 8.97902 35.9152 12.0931 35.9152 16.3847C35.9152 24.9422 29.0627 38.1389 19.9575 38.1389C10.5472 38.1389 2.28968 24.5808 2.28968 16.3847C2.28968 11.5796 4.39879 8.39485 8.67082 6.63548C9.34648 8.33664 10.9416 9.53569 12.7989 9.53569C15.266 9.53569 17.2732 7.42157 17.2732 4.82308C17.2732 2.22459 15.2656 0.110474 12.7986 0.110474C10.5493 0.110474 8.70087 1.87345 8.38863 4.15273C2.90352 6.19602 0 10.4125 0 16.3844C0 25.23 8.22493 39.0372 18.3129 40.427V54.2474C18.3129 60.8996 23.4517 66.3115 29.7676 66.3115C36.0835 66.3115 41.2217 60.8996 41.2217 54.2474V34.4065C41.2217 31.39 43.5514 28.9365 46.4152 28.9365C49.2789 28.9365 51.6086 31.3903 51.6086 34.4065V39.9912C47.8478 40.5774 44.9494 43.9904 44.9494 48.1118C44.9494 52.6442 48.4499 56.3314 52.7534 56.3314C57.0568 56.3314 60.5576 52.6445 60.5576 48.1118C60.5582 43.99 57.6595 40.5774 53.8987 39.9912ZM25.5969 7.12438C24.3923 7.12438 23.4119 6.09173 23.4119 4.82308C23.4119 3.55443 24.3923 2.52179 25.5969 2.52179C26.8014 2.52179 27.7818 3.55443 27.7818 4.82308C27.7818 6.09173 26.8014 7.12438 25.5969 7.12438ZM12.7986 2.52179C14.0031 2.52179 14.9835 3.55443 14.9835 4.82308C14.9835 6.09173 14.0031 7.12438 12.7986 7.12438C11.5941 7.12438 10.6137 6.09173 10.6137 4.82308C10.6137 3.55443 11.5941 2.52179 12.7986 2.52179ZM52.7539 53.9201C49.7134 53.9201 47.2393 51.3144 47.2393 48.1118C47.2393 44.9093 49.7134 42.3036 52.7539 42.3036C55.795 42.3036 58.2688 44.9093 58.2688 48.1118C58.2688 51.3144 55.795 53.9201 52.7539 53.9201Z" fill="#EA1C81"/>
<path d="M52.7542 45.3636C51.3133 45.3636 50.1454 46.5939 50.1454 48.1113C50.1454 49.6288 51.3133 50.8589 52.7542 50.8589C54.195 50.8589 55.3629 49.6285 55.3629 48.1113C55.3629 46.5939 54.1948 45.3636 52.7542 45.3636Z" fill="#EA1C81"/>
<path d="M50.3795 4.82264C51.0117 4.82264 51.5242 4.2828 51.5242 3.61698V1.20566C51.5242 0.539835 51.0117 0 50.3795 0C49.7474 0 49.2348 0.539835 49.2348 1.20566V3.61698C49.2348 4.2828 49.7474 4.82264 50.3795 4.82264Z" fill="#EA1C81"/>
<path d="M50.3795 7.23395C49.7474 7.23395 49.2348 7.77376 49.2348 8.43958V10.8508C49.2348 11.5166 49.7474 12.0564 50.3795 12.0564C51.0117 12.0564 51.5242 11.5166 51.5242 10.8508V8.43958C51.5242 7.77376 51.0117 7.23395 50.3795 7.23395Z" fill="#EA1C81"/>
<path d="M45.8006 7.23395H48.0901C48.7223 7.23395 49.2348 6.69412 49.2348 6.0283C49.2348 5.36247 48.7223 4.82263 48.0901 4.82263H45.8006C45.1685 4.82263 44.656 5.36247 44.656 6.0283C44.656 6.69412 45.1685 7.23395 45.8006 7.23395Z" fill="#EA1C81"/>
<path d="M52.6688 7.23395H54.9582C55.5904 7.23395 56.103 6.69412 56.103 6.0283C56.103 5.36247 55.5904 4.82263 54.9582 4.82263H52.6688C52.0367 4.82263 51.5241 5.36247 51.5241 6.0283C51.5241 6.69412 52.0367 7.23395 52.6688 7.23395Z" fill="#EA1C81"/>
<path d="M59.4587 18.0809C60.1347 18.0809 60.6827 17.5036 60.6827 16.792C60.6827 16.0803 60.1347 15.5028 59.4587 15.5028C58.7828 15.5028 58.235 16.0801 58.235 16.792C58.235 17.504 58.7828 18.0809 59.4587 18.0809Z" fill="#EA1C81"/>
</svg>
